<?xml version="1.0" encoding="UTF-8"?><svg id="Layer_2" xmlns="http://www.w3.org/2000/svg" viewBox="0 0 429.02 116.93"><defs><style>.cls-1{fill:#b00707;}</style></defs><g id="Layer_1-2"><g><path class="cls-1" d="M0,1.62c14.33-.03,28.67-.05,43-.08,0,6.19-.01,9.29-.02,15.48-10.7,.19-16.04,.28-26.74,.5,0,10.36-.01,20.71-.02,31.07,8.38-.47,12.57-.69,20.96-1.1,0,6.23-.01,9.34-.02,15.57-8.38,.55-12.57,.85-20.95,1.46-.01,16.2-.02,32.4-.03,48.59-6.48,.84-9.71,1.28-16.19,2.18C0,77.41,0,39.52,0,1.62Z"/><path class="cls-1" d="M50.84,1.54c6.5,0,9.75-.01,16.26-.02-.06,35.3-.13,70.59-.19,105.89-6.5,.62-9.74,.95-16.23,1.65,.06-35.84,.11-71.67,.17-107.51Z"/><path class="cls-1" d="M79.21,1.5c8.16-.01,12.24-.01,20.39-.02,5.19,20.37,10.42,40.73,15.7,61.08,.12,0,.18,0,.3-.01,.04-20.36,.08-40.72,.11-61.08,5.79,0,8.69,0,14.48-.01-.06,33.73-.12,67.46-.17,101.2-6.69,.37-10.03,.57-16.72,1.01-6.52-24.72-12.98-49.45-19.37-74.2-.12,0-.18,0-.3,0-.05,25.21-.1,50.42-.15,75.63-5.79,.46-8.69,.7-14.48,1.21,.07-34.93,.13-69.86,.2-104.79Z"/><path class="cls-1" d="M142.31,1.44c9.58,0,14.37,0,23.94-.01,8.08,0,14.14,2.08,18.17,6.23,4.04,4.15,6.05,10.23,6.05,18.25,0,3.91,0,5.86,0,9.77,0,8.02-2.03,14.12-6.08,18.32-4.05,4.2-10.12,6.36-18.21,6.51-3.08,.06-4.62,.09-7.69,.16-.02,13.56-.03,27.12-.05,40.68-6.52,.24-9.77,.37-16.29,.68,.05-33.53,.1-67.06,.16-100.59Zm23.89,44.83c2.66-.04,4.66-.78,5.99-2.21s2-3.86,2-7.27c0-4.72,0-7.07,.01-11.79,0-3.41-.66-5.82-1.99-7.24-1.33-1.41-3.32-2.12-5.99-2.1-3.07,.01-4.61,.02-7.69,.04-.01,10.23-.03,20.46-.04,30.69,3.08-.05,4.61-.08,7.69-.12Z"/><path class="cls-1" d="M199.36,1.41c9.64,0,14.45,0,24.09,0,8.37,0,14.49,1.86,18.33,5.6,3.84,3.74,5.77,9.49,5.78,17.24,0,2.44,0,3.66,0,6.1,0,10.31-3.54,16.79-10.64,19.47,0,.11,0,.17,0,.28,3.94,1.16,6.73,3.5,8.36,7.02,1.63,3.52,2.45,8.21,2.45,14.07,0,6.98,0,10.47,.01,17.44,0,2.84,.1,5.13,.3,6.88,.2,1.75,.69,3.49,1.49,5.21-6.64-.15-9.95-.21-16.59-.29-.59-1.61-.99-3.13-1.19-4.54-.2-1.41-.3-3.96-.3-7.64,0-7.24,0-10.86,0-18.1,0-4.53-.77-7.69-2.3-9.49-1.53-1.8-4.17-2.71-7.92-2.72-2.25,0-3.37,0-5.62,0,0,14.13,0,28.26,0,42.39-6.52,0-9.78,.01-16.3,.07,.01-33,.02-65.99,.04-98.99Zm22.18,42.4c3.25,0,5.7-.78,7.32-2.38,1.62-1.6,2.44-4.28,2.44-8.05,0-3.06,0-4.58,0-7.64,0-3.58-.67-6.18-2-7.78-1.33-1.6-3.43-2.41-6.28-2.41-2.96,0-4.43,0-7.39,0v28.26c2.37,0,3.55,0,5.92,0Z"/><path class="cls-1" d="M264.2,96c-4.25-4.5-6.38-10.7-6.39-18.66-.02-17.44-.04-34.88-.05-52.32,0-7.96,2.1-14.11,6.34-18.47C268.33,2.19,274.43,0,282.41,0c7.98,0,14.09,2.2,18.34,6.66,4.24,4.45,6.37,10.77,6.39,18.9,.03,17.82,.06,35.63,.1,53.45,.01,8.13-2.09,14.32-6.33,18.53-4.23,4.21-10.35,6.08-18.34,5.72-7.99-.36-14.12-2.77-18.37-7.26Zm26.77-16.67c-.03-18.33-.06-36.67-.09-55-.01-6.62-2.83-9.96-8.44-9.99-5.62-.03-8.42,3.24-8.41,9.81,.02,18.2,.05,36.4,.07,54.6,0,6.57,2.83,9.95,8.45,10.17,5.62,.22,8.43-2.97,8.42-9.59Z"/><path class="cls-1" d="M318.03,1.46c6.5,0,9.75,0,16.26,.02,.03,14.05,.05,28.1,.08,42.15,6.98,.23,10.46,.35,17.44,.61-.03-14.24-.05-28.49-.08-42.73,6.5,0,9.75,.01,16.26,.02,.06,35.49,.12,70.98,.18,106.47-6.49-.65-9.74-.96-16.24-1.54-.03-15.74-.06-31.49-.09-47.23-6.97-.35-10.46-.51-17.44-.81,.03,15.53,.06,31.06,.09,46.58-6.5-.51-9.76-.74-16.26-1.18-.06-34.12-.13-68.24-.19-102.35Z"/><path class="cls-1" d="M384.9,104.43c-4.38-5.05-6.58-11.82-6.6-20.42,0-3.81,0-5.71-.01-9.52,0-5.32,.82-9.75,2.49-13.29,1.67-3.54,4.37-6.24,8.11-8.11,0-.12,0-.19,0-.31-3.45-2.15-5.99-4.98-7.61-8.49-1.63-3.51-2.45-7.92-2.46-13.25,0-1.78,0-2.67,0-4.46-.01-8.61,2.12-15.14,6.4-19.7C389.48,2.33,395.62,0,403.6,0c7.98,0,14.12,2.35,18.4,7.17,4.29,4.81,6.43,11.82,6.43,20.91,0,1.88,0,2.82,0,4.71,0,10.82-3.34,18.11-10.03,21.74,0,.13,0,.19,0,.32,3.74,2.38,6.44,5.56,8.11,9.52,1.67,3.96,2.51,8.78,2.51,14.41,0,4.03,0,6.04,0,10.07,0,9.09-2.18,15.79-6.55,20.01-4.37,4.22-10.62,5.72-18.77,4.7-8.15-1.02-14.42-4.07-18.8-9.11Zm27.91-18.23c0-4.27,0-6.4,0-10.67,0-8.39-3.06-12.81-9.15-13.23-6.1-.42-9.14,3.5-9.13,11.72,0,4.18,0,6.28,.01,10.46,0,8.23,3.06,12.64,9.15,13.3,6.09,.66,9.13-3.19,9.13-11.58Zm-.62-50.37c0-3.5,0-5.25,0-8.76,0-7.43-2.86-11.2-8.57-11.3-5.71-.1-8.56,3.5-8.56,10.79,0,3.44,0,5.16,.01,8.59,0,7.29,2.87,11.07,8.57,11.37,5.71,.29,8.56-3.27,8.55-10.7Z"/></g></g></svg>